<?xml version="1.0" encoding="utf-8"?>
<!-- Generator: Adobe Illustrator 20.1.0, SVG Export Plug-In . SVG Version: 6.00 Build 0)  -->
<svg version="1.1" id="Layer_1" xmlns="http://www.w3.org/2000/svg" xmlns:xlink="http://www.w3.org/1999/xlink" x="0px" y="0px"
	 width="908px" height="873px" viewBox="0 0 908 873" style="enable-background:new 0 0 908 873;" xml:space="preserve">
<style type="text/css">
	.st0{fill:url(#SVGID_1_);}
	.st1{opacity:0.3;}
	.st2{fill:#98B1DC;}
	.st3{fill:#C0CFEB;}
	.st4{opacity:0.43;}
	.st5{fill:#FFFFFF;}
	.st6{opacity:0.52;fill:#FFFFFF;enable-background:new    ;}
	.st7{opacity:0.68;}
	.st8{opacity:0.7;fill:#C0CFEB;enable-background:new    ;}
	.st9{opacity:0.5;}
	.st10{fill:url(#SVGID_2_);}
	.st11{fill:url(#SVGID_3_);}
	.st12{fill:url(#SVGID_4_);}
	.st13{fill:url(#SVGID_5_);}
	.st14{fill:url(#SVGID_6_);}
	.st15{fill:url(#SVGID_7_);}
	.st16{fill:url(#SVGID_8_);}
	.st17{fill:url(#SVGID_9_);}
	.st18{fill:url(#SVGID_10_);}
	.st19{fill:url(#SVGID_11_);}
	.st20{fill:url(#SVGID_12_);}
	.st21{fill:url(#SVGID_13_);}
	.st22{fill:url(#SVGID_14_);}
	.st23{fill:url(#SVGID_15_);}
	.st24{fill:url(#SVGID_16_);}
	.st25{fill:url(#SVGID_17_);}
	.st26{fill:url(#SVGID_18_);}
	.st27{fill:url(#SVGID_19_);}
	.st28{fill:url(#SVGID_20_);}
	.st29{fill:url(#SVGID_21_);}
	.st30{fill:url(#SVGID_22_);}
	.st31{fill:url(#SVGID_23_);}
	.st32{fill:url(#SVGID_24_);}
	.st33{fill:url(#SVGID_25_);}
	.st34{fill:url(#SVGID_26_);}
	.st35{fill:url(#SVGID_27_);}
	.st36{fill:url(#SVGID_28_);}
	.st37{fill:url(#SVGID_29_);}
	.st38{fill:#8193CA;}
</style>
<g>
	
		<linearGradient id="SVGID_1_" gradientUnits="userSpaceOnUse" x1="940.4363" y1="6.2046" x2="316.8213" y2="551.8673" gradientTransform="matrix(1 0 0 -1 0 874.7755)">
		<stop  offset="0" style="stop-color:#DBE2F3"/>
		<stop  offset="1" style="stop-color:#EAEFF8"/>
	</linearGradient>
	<path class="st0" d="M834.4,585.2C753.8,775,539.2,881.3,353,852.6c-30.3-4.7-113.3-18.6-186.9-84.1
		C24.5,642.2-5.7,392.3,108.4,216.1C191.6,87.9,340.5,15.2,482.1,18.8c30.5,0.8,147.4,5.6,250.1,90.3c15.1,12.4,48.4,42,78.3,88.9
		C880.9,308.1,887,461.5,834.4,585.2z"/>
	<g>
		<g>
			<g class="st1">
				<path class="st2" d="M551.4,142.7c-1.6-0.1-2.9-1.5-2.9-3.1c0.1-3.2,0.1-6.4,0-9.7c-0.1-1.6,1.2-3,2.8-3.1c0,0,0,0,0.1,0
					c1.6-0.1,3,1.2,3.1,2.8c0.1,3.4,0.2,6.8,0,10.2c-0.1,1.5-1.3,2.8-2.8,2.9C551.6,142.7,551.5,142.7,551.4,142.7z M546.7,114.3
					c-0.6-3.2-1.3-6.3-2.1-9.4c-0.4-1.6,0.5-3.2,2.1-3.7c1.6-0.4,3.2,0.5,3.7,2.1c0.9,3.2,1.6,6.6,2.3,9.9c0.3,1.6-0.8,3.2-2.4,3.5
					c-0.1,0-0.2,0-0.4,0C548.4,116.9,547,115.8,546.7,114.3z M539.4,90.1c-1.3-2.9-2.7-5.9-4.2-8.7c-0.8-1.5-0.2-3.3,1.2-4
					c1.5-0.8,3.3-0.2,4,1.2c1.6,3,3.1,6.1,4.4,9.2c0.6,1.5-0.1,3.3-1.6,3.9c-0.3,0.1-0.7,0.2-1,0.2C541.1,92,539.9,91.3,539.4,90.1z
					 M526.9,68.2c-1.9-2.6-3.9-5.1-6-7.5c-1.1-1.2-1-3.1,0.3-4.2c1.2-1.1,3.1-0.9,4.2,0.3c2.2,2.5,4.4,5.2,6.3,7.9
					c1,1.3,0.7,3.2-0.6,4.2c-0.5,0.3-1,0.5-1.6,0.6C528.5,69.4,527.5,69,526.9,68.2z M509.8,49.5c-2.4-2.1-5-4.1-7.5-6
					c-1.3-1-1.6-2.8-0.6-4.2c1-1.3,2.8-1.6,4.2-0.6c2.7,2,5.4,4.1,7.9,6.3c1.2,1.1,1.4,3,0.3,4.2c-0.5,0.6-1.3,1-2.1,1
					C511.2,50.3,510.4,50.1,509.8,49.5z M488.9,35.1c-2.8-1.5-5.7-2.9-8.7-4.2c-1.5-0.7-2.2-2.4-1.6-3.9c0.7-1.5,2.4-2.2,3.9-1.6
					c3.1,1.3,6.2,2.8,9.1,4.4c1.4,0.8,2,2.6,1.2,4c-0.5,0.9-1.4,1.5-2.4,1.6C490,35.5,489.5,35.4,488.9,35.1z M378.3,33.8
					c-0.8-1.5-0.2-3.3,1.2-4c3-1.6,6.1-3.1,9.2-4.4c1.5-0.6,3.3,0.1,3.9,1.6s-0.1,3.3-1.6,3.9c-3,1.3-5.9,2.7-8.7,4.2
					c-0.4,0.2-0.8,0.3-1.2,0.3C380,35.4,378.8,34.8,378.3,33.8z M465.5,25.7c-3.1-0.9-6.3-1.6-9.4-2.2c-1.6-0.3-2.7-1.9-2.4-3.5
					c0.3-1.6,1.9-2.7,3.5-2.4c3.3,0.6,6.6,1.4,9.9,2.3c1.6,0.4,2.5,2.1,2.1,3.7c-0.3,1.3-1.5,2.1-2.7,2.2
					C466.1,25.9,465.8,25.8,465.5,25.7z M402.2,23.6c-0.4-1.6,0.5-3.2,2.1-3.7c3.3-0.9,6.6-1.6,9.9-2.2c1.6-0.3,3.2,0.8,3.5,2.4
					s-0.8,3.2-2.4,3.5c-3.2,0.6-6.3,1.3-9.4,2.1c-0.2,0.1-0.4,0.1-0.6,0.1C403.9,25.9,402.6,25,402.2,23.6z M440.5,21.8
					c-3.2-0.1-6.4-0.1-9.7,0c-1.6,0.1-3-1.2-3.1-2.9c-0.1-1.6,1.2-3,2.8-3.1c0,0,0,0,0.1,0c3.4-0.1,6.8-0.1,10.2,0
					c1.6,0.1,2.9,1.5,2.9,3.1c-0.1,1.5-1.3,2.8-2.8,2.8C440.7,21.8,440.6,21.8,440.5,21.8z"/>
				<path class="st2" d="M363.6,46.8c0.6,0,1.2-0.2,1.7-0.6c1.2-1,2.4-1.9,3.7-2.8c1.3-1,1.6-2.8,0.7-4.2c-1-1.3-2.8-1.6-4.2-0.7
					c-1.3,1-2.6,2-3.9,3s-1.5,2.9-0.5,4.2C361.7,46.5,362.7,46.9,363.6,46.8z"/>
			</g>
			<g class="st1">
				<path class="st2" d="M320.1,126.6c1.4-0.1,2.6-1.2,2.8-2.7c0.1-1.5,0.3-3.1,0.5-4.6c0.2-1.6-0.9-3.1-2.5-3.4
					c-1.6-0.2-3.1,0.9-3.4,2.5c-0.2,1.6-0.4,3.2-0.6,4.9c-0.2,1.6,1,3.1,2.7,3.3C319.8,126.6,320,126.6,320.1,126.6z"/>
				<path class="st2" d="M437.1,253.9c-1.6,0-3-1.3-3-2.9s1.3-3,2.9-3c3.1,0,6.3-0.2,9.5-0.5c1.6-0.2,3.1,1,3.3,2.7
					c0.2,1.6-1,3.1-2.7,3.3c-1.4,0.1-2.7,0.2-4.1,0.3C441,253.8,439,253.8,437.1,253.9z M459.5,248.4c-0.4-1.6,0.6-3.2,2.2-3.6
					c3.1-0.7,6.2-1.6,9.1-2.6c1.6-0.5,3.2,0.3,3.8,1.9c0.5,1.6-0.3,3.2-1.9,3.8c-3.2,1-6.4,1.9-9.6,2.7c-0.2,0-0.3,0.1-0.5,0.1
					C461.1,250.8,459.8,249.9,459.5,248.4z M420.8,253c-3.3-0.4-6.6-1-9.9-1.6c-1.6-0.3-2.6-1.9-2.3-3.5c0.3-1.6,1.9-2.6,3.5-2.3
					c3.1,0.7,6.2,1.2,9.4,1.6c1.6,0.2,2.8,1.7,2.6,3.3c-0.2,1.4-1.4,2.5-2.8,2.6C421.2,253,421,253,420.8,253z M483.8,240.4
					c-0.7-1.5-0.1-3.3,1.4-4c2.8-1.4,5.6-2.9,8.4-4.5c1.4-0.8,3.2-0.4,4.1,1c0.8,1.4,0.4,3.2-1,4.1c-2.9,1.7-5.8,3.3-8.8,4.8
					c-0.4,0.2-0.7,0.3-1.1,0.3C485.5,242.2,484.3,241.6,483.8,240.4z M395.4,246.9c-3.1-1.1-6.2-2.4-9.3-3.8
					c-1.5-0.7-2.2-2.5-1.5-3.9c0.7-1.5,2.5-2.2,3.9-1.5c2.9,1.3,5.8,2.5,8.8,3.6c1.5,0.6,2.4,2.3,1.8,3.8c-0.4,1.2-1.5,1.9-2.6,2
					C396.2,247.1,395.8,247.1,395.4,246.9z M371.8,235.4c-2.8-1.8-5.6-3.7-8.2-5.7c-1.3-1-1.6-2.9-0.6-4.2c1-1.3,2.9-1.6,4.2-0.6
					c2.5,1.9,5.1,3.7,7.8,5.4c1.4,0.9,1.8,2.7,0.9,4.1c-0.5,0.8-1.4,1.3-2.3,1.4C373,235.9,372.4,235.8,371.8,235.4z M351.4,219
					c-2.4-2.3-4.6-4.8-6.8-7.4c-1.1-1.3-0.9-3.1,0.3-4.2c1.3-1.1,3.1-0.9,4.2,0.3c2,2.4,4.2,4.8,6.4,7c1.2,1.2,1.2,3.1,0,4.2
					c-0.5,0.5-1.2,0.8-1.9,0.9C352.8,220,352,219.7,351.4,219z M335,198.6c-1.8-2.8-3.5-5.7-5-8.7c-0.8-1.5-0.2-3.3,1.3-4
					c1.5-0.8,3.3-0.2,4,1.3c1.5,2.8,3.1,5.6,4.8,8.2c0.9,1.4,0.5,3.2-0.9,4.1c-0.4,0.3-0.9,0.4-1.4,0.5
					C336.6,200,335.6,199.6,335,198.6z M323.4,175c-1.1-3.1-2.1-6.3-3-9.5c-0.4-1.6,0.5-3.2,2.1-3.6c1.6-0.4,3.2,0.5,3.6,2.1
					c0.8,3.1,1.8,6.1,2.8,9.1c0.6,1.5-0.3,3.3-1.8,3.8c-0.3,0.1-0.5,0.2-0.8,0.2C325.1,177.1,323.9,176.3,323.4,175z M317.4,149.6
					c-0.3-2.4-0.5-4.9-0.7-7.3c-0.1-0.9-0.1-1.8-0.1-2.6c-0.1-1.6,1.2-3.1,2.9-3.1c1.6-0.1,3,1.2,3.1,2.9c0,0.8,0.1,1.7,0.1,2.5
					c0.1,2.3,0.4,4.7,0.7,7c0.2,1.6-1,3.1-2.6,3.3c-0.1,0-0.1,0-0.2,0C319,152.3,317.6,151.1,317.4,149.6z"/>
				<path class="st2" d="M508.3,228.4c0.6,0,1.2-0.3,1.7-0.6c1.3-1,2.5-2.1,3.7-3.1c1.2-1.1,1.4-3,0.3-4.2c-1.1-1.2-3-1.4-4.2-0.3
					c-1.2,1-2.4,2-3.6,3c-1.3,1-1.5,2.9-0.5,4.2C506.4,228.1,507.3,228.4,508.3,228.4z"/>
			</g>
			<g>
				<path class="st2" d="M513.9,177.6c0.3-0.5,0.3-1.1,0-1.6l-9.8-13.8c3-7.3,4.9-15.2,5.4-23.3l14.9-8.1c0.5-0.3,0.8-0.9,0.7-1.5
					l-3.3-20.1c-0.1-0.6-0.6-1-1.1-1.1l-16.7-2.8c-3.1-7.5-7.4-14.4-12.7-20.3l4.8-16.3c0.2-0.6,0-1.2-0.5-1.5l-16.5-11.8
					c-0.5-0.3-1.1-0.3-1.6,0l-13.8,9.8c-7.3-3-15.2-4.9-23.3-5.4l-8.1-14.9c-0.3-0.5-0.9-0.8-1.5-0.7l-20.1,3.3
					c-0.6,0.1-1,0.6-1.1,1.1l-2.8,16.7c-7.5,3.1-14.4,7.4-20.3,12.7l-16.3-4.8c-0.6-0.2-1.2,0-1.5,0.5l-11.8,16.5
					c-0.3,0.5-0.3,1.1,0,1.6l9.8,13.8c-3,7.3-4.9,15.2-5.4,23.3l-14.9,8.1c-0.5,0.3-0.8,0.9-0.7,1.5l3.3,20.1c0.1,0.6,0.6,1,1.1,1.1
					l16.7,2.8c3.1,7.5,7.4,14.4,12.7,20.3l-4.8,16.3c-0.2,0.6,0,1.2,0.5,1.5l16.5,11.8c0.5,0.3,1.1,0.3,1.6,0l13.8-9.8
					c7.3,3,15.2,4.9,23.3,5.4l8.1,14.9c0.3,0.5,0.9,0.8,1.5,0.7l20.1-3.3c0.6-0.1,1-0.6,1.1-1.1l2.8-16.7
					c7.5-3.1,14.4-7.4,20.3-12.7l16.3,4.8c0.6,0.2,1.2,0,1.5-0.5L513.9,177.6z"/>
				<g>
					<path class="st3" d="M433.7,154.3c-11.2-0.9-19.6-10.8-18.7-22.1c0.5-5.4,3-10.4,7.2-13.9s9.5-5.2,14.9-4.8
						c11.2,0.9,19.6,10.8,18.7,22.1c-0.8,10.2-9.1,18.1-19.1,18.7C435.7,154.4,434.7,154.4,433.7,154.3z M425.2,121.9
						c-3.2,2.7-5.1,6.5-5.5,10.7c-0.7,8.6,5.7,16.2,14.3,16.9c8.6,0.7,16.2-5.7,16.9-14.3c0.7-8.6-5.7-16.2-14.3-16.9
						c-0.8-0.1-1.6-0.1-2.3,0C431,118.5,427.8,119.7,425.2,121.9z"/>
				</g>
				<path class="st3" d="M438.1,183.8c1.7-0.1,3.4-0.3,5.1-0.6l0,0c0.5-0.1,1.1-0.2,1.6-0.3c2.6-0.5,5.2-1.3,7.7-2.2h0.1
					c0.1,0,0.2-0.1,0.3-0.1c0.2-0.1,0.4-0.1,0.6-0.2c0.5-0.2,0.8-0.7,0.8-1.2c0-0.1,0-0.2-0.1-0.4c-0.2-0.6-0.9-0.9-1.5-0.7
					c-3.2,1.2-6.5,2.2-9.8,2.7c-16.7,2.8-32.9-3.5-43.5-15.3c-5.9-6.5-10-14.8-11.6-24.1c-0.3-1.6-0.5-3.3-0.6-4.9
					c-0.7-11,2.4-21.7,8.9-30.8c7.4-10.4,18.5-17.3,31.1-19.4c26.1-4.3,50.8,13.4,55.1,39.4c0.3,1.6,0.5,3.2,0.6,4.8
					c0.4,7-0.6,14-3.2,20.5c-0.1,0.2-0.1,0.3-0.1,0.5c0,0.4,0.3,0.9,0.8,1c0.6,0.2,1.3-0.1,1.5-0.7c2.7-6.9,3.8-14.2,3.4-21.6
					c-0.1-1.7-0.3-3.4-0.6-5.1c-4.5-27.3-30.5-45.9-57.8-41.4c-13.2,2.2-24.8,9.4-32.7,20.3c-6.8,9.5-10,20.8-9.3,32.3
					c0.1,1.7,0.3,3.4,0.6,5.1c2.2,13.2,9.4,24.8,20.3,32.7C415.3,181.3,426.6,184.5,438.1,183.8z"/>
			</g>
		</g>
		<g>
			<g class="st1">
				<path class="st2" d="M658.2,214.6c0.8-0.1,1.5-0.6,1.7-1.4c0.3-1.5,0.6-3.1,0.9-4.6c0.2-1-0.5-1.9-1.5-2.1s-1.9,0.5-2.1,1.5
					c-0.2,1.5-0.5,3-0.9,4.4c-0.2,1,0.4,2,1.4,2.2C657.8,214.6,658,214.6,658.2,214.6z"/>
				<path class="st2" d="M659.8,200.6c-1,0-1.8-0.9-1.8-1.9c0.1-2.6,0.1-5.2-0.1-7.7c0-0.5-0.1-1.1-0.1-1.6c-0.1-1,0.7-1.9,1.7-2
					c1,0,1.9,0.7,2,1.7c0,0.6,0.1,1.1,0.1,1.7c0.2,2.7,0.2,5.4,0.1,8.1c0,1-0.8,1.7-1.7,1.8C659.9,200.6,659.9,200.6,659.8,200.6z
					 M656.5,180.1c-0.6-3-1.5-6.1-2.5-9c-0.3-1,0.2-2,1.1-2.3c1-0.3,2,0.2,2.3,1.1c1.1,3.1,1.9,6.3,2.6,9.4c0.2,1-0.4,2-1.4,2.2
					c-0.1,0-0.2,0-0.3,0C657.5,181.6,656.7,181,656.5,180.1z M650.4,162.4c-1.4-2.8-2.9-5.5-4.6-8.1c-0.6-0.9-0.3-2,0.5-2.5
					c0.9-0.6,2-0.3,2.5,0.5c1.8,2.7,3.4,5.6,4.8,8.5c0.4,0.9,0.1,2-0.8,2.5c-0.2,0.1-0.5,0.2-0.7,0.2
					C651.5,163.5,650.8,163.1,650.4,162.4z M640.2,146.8c-2-2.4-4.2-4.7-6.5-6.8c-0.7-0.7-0.8-1.9-0.1-2.6c0.7-0.7,1.9-0.8,2.6-0.1
					c2.4,2.2,4.7,4.6,6.8,7.1c0.7,0.8,0.6,1.9-0.2,2.6c-0.3,0.3-0.7,0.4-1.1,0.4C641.2,147.5,640.6,147.3,640.2,146.8z M626.5,134.1
					c-2.5-1.8-5.2-3.5-7.9-5c-0.9-0.5-1.2-1.6-0.7-2.5s1.6-1.2,2.5-0.7c2.9,1.6,5.6,3.3,8.3,5.2c0.8,0.6,1,1.7,0.4,2.6
					c-0.3,0.5-0.8,0.7-1.4,0.8C627.3,134.5,626.9,134.4,626.5,134.1z M610.2,125.2c-2.9-1.1-5.9-2.1-8.9-2.9c-1-0.3-1.6-1.3-1.3-2.2
					c0.3-1,1.3-1.6,2.2-1.3c3.1,0.8,6.3,1.8,9.3,3c0.9,0.4,1.4,1.4,1,2.4c-0.3,0.7-0.9,1.1-1.6,1.2
					C610.7,125.3,610.4,125.3,610.2,125.2z M592.1,120.5c-3.1-0.4-6.2-0.6-9.3-0.6c-1,0-1.8-0.8-1.8-1.9c0-1,0.8-1.8,1.9-1.8
					c3.3,0,6.6,0.2,9.8,0.7c1,0.1,1.7,1.1,1.6,2.1c-0.1,0.9-0.8,1.5-1.7,1.6C592.4,120.5,592.2,120.5,592.1,120.5z M562,120.7
					c-0.2-1,0.4-2,1.4-2.2c2.7-0.7,5.6-1.2,8.4-1.6c0.4-0.1,0.9-0.1,1.3-0.2c1-0.1,1.9,0.6,2,1.6s-0.6,1.9-1.6,2
					c-0.4,0-0.8,0.1-1.2,0.2c-2.7,0.4-5.4,0.9-8,1.5c-0.1,0-0.2,0-0.3,0C563.1,122.1,562.3,121.5,562,120.7z"/>
			</g>
			<g class="st1">
				<path class="st2" d="M586.2,275.1c-3.2,0.2-6.4,0.1-9.6-0.1c-1-0.1-1.8-1-1.7-2s1-1.8,2-1.7c3,0.2,6.1,0.2,9.2,0.1
					c1-0.1,1.9,0.7,1.9,1.7C588,274.2,587.2,275,586.2,275.1L586.2,275.1z M593.7,272.5c-0.2-1,0.5-2,1.5-2.1c3-0.5,6-1.2,9-2.1
					c1-0.3,2,0.3,2.3,1.2c0.3,1-0.3,2-1.2,2.3c-3.1,0.9-6.2,1.7-9.4,2.2c-0.1,0-0.1,0-0.2,0C594.7,274.1,593.8,273.5,593.7,272.5z
					 M567,273.7c-3.2-0.6-6.3-1.4-9.3-2.4c-1-0.3-1.5-1.4-1.2-2.3c0.3-1,1.3-1.5,2.3-1.2c2.9,0.9,5.9,1.7,8.9,2.3
					c1,0.2,1.6,1.2,1.5,2.2c-0.2,0.8-0.9,1.4-1.7,1.5C567.3,273.8,567.2,273.8,567,273.7z M611.8,267.6c-0.4-0.9,0-2,0.9-2.4
					c2.8-1.2,5.6-2.6,8.2-4.2c0.9-0.5,2-0.2,2.5,0.6c0.5,0.9,0.2,2-0.6,2.5c-2.8,1.6-5.6,3.1-8.6,4.4c-0.2,0.1-0.4,0.1-0.6,0.2
					C612.8,268.7,612.1,268.3,611.8,267.6z M548.7,267.8c-2.9-1.4-5.8-2.9-8.5-4.6c-0.9-0.5-1.1-1.7-0.6-2.5
					c0.5-0.9,1.7-1.1,2.5-0.6c2.6,1.6,5.3,3.1,8.1,4.4c0.9,0.4,1.3,1.5,0.9,2.4c-0.3,0.6-0.9,1-1.6,1.1
					C549.3,268,549,267.9,548.7,267.8z M532.4,257.6c-2.5-2-4.9-4.2-7.1-6.5c-0.7-0.7-0.7-1.9,0-2.6s1.9-0.7,2.6,0
					c2.1,2.2,4.4,4.3,6.8,6.2c0.8,0.6,0.9,1.8,0.3,2.6c-0.3,0.4-0.8,0.7-1.3,0.7C533.2,258,532.8,257.9,532.4,257.6z M519,243.8
					c-1.9-2.6-3.8-5.3-5.4-8c-0.5-0.9-0.2-2,0.7-2.5s2-0.2,2.5,0.7c1.5,2.6,3.3,5.2,5.1,7.6c0.6,0.8,0.5,2-0.3,2.6
					c-0.3,0.2-0.6,0.4-1,0.4C519.9,244.6,519.3,244.3,519,243.8z"/>
				<path class="st2" d="M629.8,259c0.4,0,0.7-0.1,1-0.4c1.2-1,2.5-2,3.6-3c0.8-0.7,0.8-1.8,0.2-2.6c-0.7-0.8-1.8-0.8-2.6-0.2
					c-1.1,1-2.3,1.9-3.5,2.9c-0.8,0.6-1,1.8-0.3,2.6C628.7,258.8,629.3,259.1,629.8,259z"/>
			</g>
			<g>
				<path class="st2" d="M634.7,224.3c0.2-0.3,0.2-0.8,0-1.1l-6.6-9.2c2-4.9,3.3-10.2,3.6-15.6l10-5.4c0.3-0.2,0.5-0.6,0.5-1
					l-2.2-13.4c-0.1-0.4-0.4-0.7-0.8-0.8l-11.2-1.9c-2.1-5-5-9.6-8.5-13.6l3.2-10.9c0.1-0.4,0-0.8-0.4-1l-11.1-7.9
					c-0.3-0.2-0.8-0.2-1.1,0l-9.2,6.6c-4.9-2-10.2-3.3-15.6-3.6l-5.4-10c-0.2-0.3-0.6-0.5-1-0.5l-13.4,2.2c-0.4,0.1-0.7,0.4-0.8,0.8
					l-1.9,11.2c-5,2.1-9.6,5-13.6,8.5l-10.9-3.2c-0.4-0.1-0.8,0-1,0.4l-7.9,11.1c-0.2,0.3-0.2,0.8,0,1.1l6.6,9.2
					c-2,4.9-3.3,10.2-3.6,15.6l-10,5.4c-0.3,0.2-0.5,0.6-0.5,1l2.2,13.4c0.1,0.4,0.4,0.7,0.8,0.8l11.2,1.9c2.1,5,5,9.6,8.5,13.6
					l-3.2,10.9c-0.1,0.4,0,0.8,0.4,1l11.1,7.9c0.3,0.2,0.8,0.2,1.1,0l9.2-6.6c4.9,2,10.2,3.3,15.6,3.6l5.4,10c0.2,0.3,0.6,0.5,1,0.5
					l13.4-2.2c0.4-0.1,0.7-0.4,0.8-0.8l1.9-11.2c5-2.1,9.6-5,13.6-8.5l10.9,3.2c0.4,0.1,0.8,0,1-0.4L634.7,224.3z"/>
				<g>
					<path class="st3" d="M581,209c-3.7-0.3-7.1-2-9.5-4.9c-2.4-2.8-3.6-6.4-3.2-10.1c0.6-7.7,7.4-13.3,15-12.7
						c7.7,0.6,13.4,7.4,12.7,15c-0.3,3.7-2,7.1-4.9,9.5c-2.3,2-5.1,3.1-8.1,3.3C582.4,209,581.7,209,581,209z M572,194.2
						c-0.2,2.7,0.6,5.4,2.4,7.5c1.8,2.1,4.2,3.4,7,3.6l0,0c2.7,0.2,5.4-0.6,7.5-2.4s3.4-4.2,3.6-7c0.5-5.6-3.7-10.6-9.4-11.1
						c-0.5,0-1,0-1.5,0C576.5,185.2,572.4,189.1,572,194.2z"/>
				</g>
				<path class="st3" d="M584.1,229.5c1.2-0.1,2.3-0.2,3.5-0.4c2.3-0.4,4.6-1,6.8-1.9c0.1,0,0.2-0.1,0.3-0.1
					c0.8-0.3,1.2-1.1,1.2-1.8c0-0.2-0.1-0.4-0.1-0.6c-0.4-0.9-1.4-1.4-2.4-1c-2,0.8-4.2,1.4-6.4,1.8l0,0c-0.1,0-0.2,0-0.4,0.1
					c-5.2,0.8-10.3,0.3-15.1-1.4c-2.6-0.9-5.1-2.2-7.4-3.8c0,0,0,0-0.1,0s-0.1-0.1-0.2-0.1c-6.7-4.8-11.2-12-12.5-20.1
					c-0.2-1.1-0.3-2.1-0.4-3.2c-0.4-7.1,1.5-14.1,5.7-19.9c4.8-6.7,12-11.2,20.1-12.5c8.2-1.4,16.4,0.6,23.1,5.4
					c6.7,4.8,11.2,12,12.5,20.1c0.2,1,0.3,2.1,0.4,3.1c0.3,4.5-0.4,9.1-2.1,13.3c-0.1,0.3-0.1,0.5-0.1,0.8c0,0.7,0.5,1.3,1.2,1.6
					c0.9,0.4,2-0.1,2.4-1c1.9-4.7,2.7-9.8,2.3-14.9c-0.1-1.2-0.2-2.3-0.4-3.5c-1.5-9.1-6.5-17.1-14-22.5s-16.7-7.5-25.9-6
					c-9.1,1.5-17.1,6.5-22.5,14c-4.7,6.6-6.9,14.4-6.4,22.3c0.1,1.2,0.2,2.4,0.4,3.5C550.7,218.3,566.6,230.6,584.1,229.5z"/>
			</g>
		</g>
	</g>
	<g>
		<path class="st2" d="M863.1,405.2c0-2.7-1.2-5.2-3.1-7c-1.9-1.8-4.5-2.8-7.2-2.7l-215.6,6.9c-5.5,0.2-9.8,4.8-9.6,10.2l10.6,357.1
			c0.2,5.4,4.6,9.7,10,9.7l211.3-2.1c2.7,0,5.2-1.1,7-3c1.9-1.9,2.9-4.5,2.8-7.1L863.1,405.2z"/>
		<g class="st4">
			<path class="st5" d="M840.7,422.7h-192c-1.9,0-3.4,1-3.3,2.8l0.2,16.8c0,1.8,1.6,3.7,3.4,3.7l192.5,0.2c1.9,0,3.4-2.1,3.3-3.9
				l-0.6-16.7C844.1,423.7,842.6,422.7,840.7,422.7z"/>
			<path class="st5" d="M841.9,458.8l-192.8-0.3c-1.9,0-3.4,1.8-3.4,3.6l0.2,17.1c0,1.8,1.6,3.5,3.4,3.5l193.4,0.5
				c1.9,0,3.4-1.7,3.3-3.5l-0.6-17.3C845.4,460.6,843.8,458.8,841.9,458.8z"/>
			<path class="st5" d="M843.2,497.4l-193.7-0.7c-1.9,0-3.4,0.9-3.4,2.7l0.2,17.3c0,1.8,1.6,3.2,3.5,3.2l194.2,0.9
				c1.9,0,3.4-1.4,3.4-3.2l-0.6-17.4C846.7,498.3,845.1,497.4,843.2,497.4z"/>
			<path class="st5" d="M844.5,535.1l-194.5-1c-1.9,0-3.4,1.2-3.4,3l0.2,17.4c0,1.8,1.6,2.9,3.5,2.9l195.1,1.2c1.9,0,3.5-1,3.4-2.8
				l-0.6-17.6C848,536.3,846.4,535.1,844.5,535.1z"/>
			<path class="st5" d="M845.7,573.1l-195.4-1.3c-1.9,0-3.4,1.6-3.4,3.4l0.2,17.6c0,1.8,1.6,3.8,3.5,3.9l196,1.6
				c1.9,0,3.4-2,3.4-3.8l-0.6-17.7C849.3,574.7,847.7,573.1,845.7,573.1z"/>
			<path class="st5" d="M847,611.4l-196.3-1.7c-1.9,0-3.4,1.9-3.4,3.8l0.2,17.7c0,1.9,1.6,3.5,3.5,3.5l196.8,1.9
				c1.9,0,3.5-1.6,3.4-3.5l-0.6-17.9C850.6,613.4,849,611.4,847,611.4z"/>
			<path class="st5" d="M848.4,651.4l-197.2-2c-1.9,0-3.5,1-3.4,2.9l0.2,17.9c0,1.9,1.6,3.2,3.5,3.2l197.7,2.3c2,0,3.5-1.3,3.4-3.2
				l-0.6-18.1C852,652.5,850.3,651.4,848.4,651.4z"/>
			<path class="st5" d="M849.7,690.4L651.6,688c-1.9,0-3.5,1.4-3.5,3.2l0.2,18.1c0,1.9,1.6,2.8,3.5,2.9l198.6,2.6
				c2,0,3.5-0.9,3.5-2.8l-0.6-18.2C853.3,691.9,851.7,690.4,849.7,690.4z"/>
			<path class="st5" d="M851,729.8L652.1,727c-1.9,0-3.5,1.7-3.5,3.6l0.2,18.2c0,1.9,1.6,3.9,3.6,3.9l199.5,3c2,0,3.5-1.9,3.4-3.8
				l-0.6-18.4C854.7,731.6,853,729.8,851,729.8z"/>
		</g>
	</g>
	<g>
		<g>
			<path class="st3" d="M378.5,772.2c0,0,71.2-437.1-111.1-750.3c-2.4-4.1-8.2-4.4-10.9-0.5C213.2,82.2-43.3,477.8,378.5,772.2z"/>
			<path class="st6" d="M251,149.3c0,0-0.3,2.4-0.6,6.9c-0.4,4.5-0.9,11.2-1.3,19.6c-0.5,8.5-0.9,18.7-1.3,30.5
				c-0.1,5.9-0.3,12.2-0.3,18.8c0,3.3-0.1,6.7-0.1,10.2s0,7,0,10.7c0,3.6,0,7.3,0.1,11.1c0.1,3.8,0.1,7.6,0.2,11.5
				c0.1,3.9,0.3,7.9,0.4,11.9c0.1,2,0.1,4.1,0.2,6.1c0.1,2,0.2,4.1,0.3,6.2c0.2,4.2,0.4,8.4,0.6,12.6c0.2,4.3,0.5,8.6,0.8,12.9
				c0.5,8.7,1.3,17.6,2,26.7c0.3,4.5,0.8,9.1,1.3,13.7s0.9,9.2,1.4,13.9c0.5,4.6,1.1,9.3,1.6,14c0.3,2.3,0.6,4.7,0.8,7.1
				c0.3,2.4,0.6,4.7,1,7.1c0.7,4.7,1.3,9.5,2,14.2c0.7,4.8,1.5,9.5,2.2,14.3c0.8,4.8,1.5,9.5,2.3,14.3c0.9,4.8,1.7,9.5,2.6,14.3
				l1.3,7.1c0.4,2.4,1,4.7,1.4,7.1c1,4.7,1.9,9.5,2.9,14.2c0.9,4.7,2.1,9.4,3.1,14.1c1.1,4.7,2.2,9.3,3.2,14
				c2.3,9.2,4.7,18.4,7,27.4c2.6,9,5.2,17.8,7.7,26.5c2.8,8.6,5.5,17.1,8.1,25.5c2.9,8.2,5.7,16.3,8.5,24.1
				c2.9,7.8,5.9,15.3,8.7,22.6c0.7,1.8,1.4,3.6,2.1,5.4c0.8,1.8,1.5,3.5,2.2,5.3c1.5,3.5,2.9,6.9,4.4,10.2c1.4,3.3,2.8,6.6,4.2,9.8
				c1.5,3.1,2.9,6.2,4.3,9.2c2.8,6,5.5,11.7,8,17c2.7,5.2,5.2,10.2,7.6,14.7c1.2,2.3,2.3,4.4,3.4,6.5s2.1,4.1,3.1,5.9
				c8.3,14.8,13.1,23.2,13.1,23.2l0,0c0.2,0.3,0.1,0.7-0.2,0.9c-0.3,0.2-0.7,0.1-0.9-0.2c0,0-4.9-8.4-13.6-23
				c-1.1-1.8-2.1-3.8-3.2-5.9c-1.1-2.1-2.3-4.2-3.5-6.5c-2.4-4.5-5-9.4-7.8-14.6c-2.6-5.3-5.4-11-8.3-16.9c-1.4-3-2.9-6.1-4.4-9.2
				c-1.4-3.2-2.8-6.5-4.3-9.8s-3-6.7-4.5-10.2c-0.8-1.7-1.5-3.5-2.3-5.3c-0.7-1.8-1.4-3.6-2.2-5.4c-2.9-7.3-6-14.8-9-22.6
				c-2.8-7.9-5.8-15.9-8.7-24.2c-2.7-8.3-5.5-16.9-8.3-25.5c-2.6-8.7-5.2-17.6-7.8-26.6c-2.4-9.1-4.8-18.2-7.1-27.5
				c-1.1-4.7-2.2-9.3-3.3-14c-1.1-4.7-2.2-9.4-3.2-14.1c-1-4.7-2-9.5-3-14.2c-0.5-2.4-1-4.7-1.5-7.1l-1.3-7.2
				c-0.9-4.8-1.7-9.6-2.6-14.3c-0.8-4.8-1.5-9.6-2.3-14.4c-0.7-4.8-1.5-9.5-2.2-14.3c-0.6-4.8-1.3-9.5-1.9-14.3
				c-0.3-2.4-0.6-4.7-1-7.1c-0.3-2.4-0.5-4.7-0.8-7.1c-0.5-4.7-1.1-9.4-1.6-14c-0.5-4.7-0.9-9.3-1.3-13.9c-0.4-4.6-0.9-9.2-1.2-13.7
				c-0.7-9.1-1.5-18-1.9-26.8c-0.2-4.4-0.5-8.7-0.7-13s-0.3-8.5-0.5-12.7c-0.1-2.1-0.2-4.2-0.2-6.2c0-2.1-0.1-4.1-0.1-6.1
				c-0.1-4.1-0.2-8-0.3-12c0-3.9-0.1-7.8-0.1-11.6c0-3.8-0.1-7.5,0-11.1c0-14.6,0.4-27.9,0.9-39.7c0.5-11.8,1.1-22.1,1.7-30.6
				c0.6-8.5,1.3-15.1,1.7-19.6c0.5-4.5,0.8-6.9,0.8-6.9l0,0c0-0.4,0.4-0.6,0.7-0.6C250.8,148.6,251.1,148.9,251,149.3z"/>
		</g>
		<g>
			<path class="st2" d="M313.9,815c0,0-1.6-510.1-242.3-660.2c-4.3-2.7-9.9-0.6-11.5,4.1C41.4,214.4-38.4,515.7,313.9,815z"/>
			<path class="st6" d="M91.8,244.3c0,0,2.1,9,6.2,24.8c2.1,7.9,4.6,17.4,7.7,28.3c3,10.9,6.7,23.2,10.7,36.5
				c4.1,13.3,8.6,27.7,13.5,42.9c2.4,7.6,5.1,15.4,7.7,23.3c2.7,7.9,5.5,16,8.4,24.3c2.9,8.2,5.8,16.6,8.9,25
				c3,8.4,6.2,16.9,9.4,25.5c0.8,2.1,1.6,4.3,2.4,6.4c0.8,2.1,1.6,4.3,2.5,6.4c1.7,4.3,3.3,8.6,5,12.9c3.4,8.6,6.8,17.2,10.3,25.9
				c3.6,8.6,7,17.2,10.7,25.7c1.8,4.3,3.6,8.5,5.4,12.7c0.9,2.1,1.8,4.2,2.7,6.3s1.9,4.2,2.8,6.3c3.7,8.3,7.3,16.7,11.1,24.8
				c3.7,8.1,7.3,16.2,11.1,24.1c1.9,3.9,3.7,7.8,5.5,11.7c0.9,1.9,1.8,3.9,2.7,5.8c0.9,1.9,1.8,3.8,2.7,5.7
				c3.7,7.5,7.1,15,10.7,22.1c1.8,3.6,3.5,7.1,5.3,10.6c1.7,3.5,3.4,6.9,5.1,10.3c3.4,6.7,6.7,13.2,9.9,19.4
				c3.1,6.2,6.3,12.1,9.3,17.7c3,5.6,5.7,11,8.4,16c5.4,9.9,10.1,18.6,14,25.8c3.9,7.1,7,12.7,9.2,16.5c2.1,3.8,3.2,5.9,3.2,5.9l0,0
				c0.2,0.4,0.1,0.8-0.3,1s-0.8,0.1-1-0.3c0,0-1.2-2-3.5-5.7c-2.2-3.7-5.5-9.2-9.7-16.2c-2.1-3.5-4.3-7.4-6.8-11.7
				c-2.4-4.3-5.1-8.9-7.9-13.8c-5.5-9.9-11.7-21.1-18.1-33.5c-3.2-6.2-6.6-12.6-10-19.3c-1.7-3.4-3.4-6.8-5.1-10.2
				c-1.7-3.5-3.5-7-5.2-10.6c-7-14.4-14.3-29.6-21.4-45.5c-7.2-15.9-14.4-32.4-21.5-49.3c-3.6-8.4-7-17-10.6-25.5
				c-3.5-8.6-6.9-17.2-10.4-25.8c-3.4-8.7-6.8-17.3-10.1-26c-1.6-4.3-3.3-8.6-4.9-13c-0.8-2.2-1.6-4.3-2.5-6.4
				c-0.8-2.2-1.6-4.3-2.4-6.4c-3.2-8.6-6.3-17.1-9.3-25.5c-3.1-8.4-6-16.8-8.8-25c-2.9-8.2-5.6-16.4-8.3-24.3
				c-2.6-8-5.2-15.7-7.7-23.4c-4.9-15.2-9.4-29.6-13.4-43s-7.6-25.6-10.7-36.5s-5.7-20.4-7.8-28.3c-4.2-15.7-6.3-24.8-6.3-24.8
				c-0.1-0.4,0.2-0.8,0.6-0.9C91.3,243.7,91.7,243.9,91.8,244.3L91.8,244.3z"/>
		</g>
	</g>
	<g>
		<path class="st2" d="M731.4,300.4c-0.1-2.3-1-4.5-2.8-6c-1.7-1.5-4-2.3-6.3-2.1l-230.6,20c-4.3,0.4-7.7,4-7.7,8.3v463.6
			c0,4.6,4,7.9,8.6,7.9h241.5c2.2,0,4.4-0.7,5.9-2.3c1.6-1.6,2.4-3.7,2.4-5.9L731.4,300.4z"/>
		<g class="st7">
			<path class="st3" d="M529.7,335.1l-17.6,1.2c-1.9,0.1-2.9,1.9-2.9,4v422.9c0,2.1,0.4,4.6,2.4,4.6H530c2,0,3.6-2.1,3.6-4.2
				l-0.3-424.7C533.2,336.8,531.7,335,529.7,335.1z"/>
			<path class="st8" d="M572.4,332.3l-18.4,1.2c-2,0.1-3.8,1.9-3.8,4l0.4,426c0,2.1,1.9,4.3,3.9,4.3h18.6c2,0,3.3-2.1,3.3-4.3
				l-0.7-427.4C575.7,334,574.4,332.2,572.4,332.3z"/>
			<path class="st3" d="M615.7,329.5l-18.7,1.2c-2,0.1-3.1,1.9-3.1,4l0.9,428.8c0,2.1,1.2,4.3,3.2,4.3h18.9c2,0,4.1-2.1,4.1-4.3
				l-1.2-430.3C619.8,331.1,617.7,329.4,615.7,329.5z"/>
			<path class="st3" d="M659.5,326.6l-18.9,1.2c-2,0.1-3.5,1.9-3.5,4.1l1.4,431.6c0,2.2,1.5,4.3,3.5,4.3h19.1c2,0,3.9-2.2,3.9-4.3
				l-1.7-433.1C663.3,328.3,661.5,326.5,659.5,326.6z"/>
			<path class="st3" d="M703.9,323.7l-19.1,1.3c-2,0.1-3.8,2-3.8,4.1l1.8,434.4c0,2.2,1.8,4.3,3.9,4.3H706c2.1,0,3.6-2.2,3.6-4.3
				l-2.1-436C707.5,325.4,705.9,323.6,703.9,323.7z"/>
		</g>
	</g>
	<g>
		<path class="st3" d="M550.8,396.7c0-2.4-1-4.7-2.8-6.4c-1.8-1.7-4.1-2.6-6.5-2.5l-183.9,7.4c-3.2,0.1-5.6,2.8-5.6,5.9l9.3,393.2
			l186-2.3c2.4,0,4.7-1,6.3-2.7c1.7-1.7,2.6-4,2.5-6.4L550.8,396.7z"/>
		<g class="st9">
			<g>
				<polygon class="st5" points="402.7,469.2 373.1,469.2 372.7,418.6 402.4,418.6 				"/>
				<polygon class="st5" points="445.2,469.1 415.7,469.1 415.4,418.6 445,418.6 				"/>
				<polygon class="st5" points="489.8,469 460.5,469 460.3,418.6 489.7,418.6 				"/>
				<polygon class="st5" points="534.4,469 504.5,469 503.9,418.6 534.4,418.6 				"/>
			</g>
			<g>
				<polygon class="st5" points="403.1,541 373.6,541.2 373.2,491 402.8,490.9 				"/>
				<polygon class="st5" points="445.4,540.8 416,541 415.8,490.9 445.2,490.8 				"/>
				<polygon class="st5" points="490,540.6 460.7,540.7 460.5,490.7 489.9,490.6 				"/>
				<polygon class="st5" points="534.4,540.4 504.6,540.5 504.9,490.6 534.4,490.5 				"/>
			</g>
			<g>
				<polygon class="st5" points="403.5,614.7 374.1,614.9 373.7,565 403.2,564.9 				"/>
				<polygon class="st5" points="445.7,614.3 416.4,614.6 416.2,564.8 445.5,564.6 				"/>
				<polygon class="st5" points="490.1,613.9 460.9,614.2 460.8,564.5 490,564.3 				"/>
				<polygon class="st5" points="534.4,613.6 504.7,613.8 505,564.2 534.4,564 				"/>
			</g>
			<g>
				<polygon class="st5" points="403.9,686.7 374.6,687 374.2,638.6 403.6,638.3 				"/>
				<polygon class="st5" points="446,686.2 416.8,686.5 416.5,638.2 445.8,637.9 				"/>
				<polygon class="st5" points="490.2,685.7 461.1,686 461,637.8 490.2,637.5 				"/>
				<polygon class="st5" points="534.4,685.2 504.8,685.5 505.1,637.4 534.4,637.1 				"/>
			</g>
			<g>
				<polygon class="st5" points="404.3,759.4 375.1,759.8 374.7,711.7 404,711.4 				"/>
				<polygon class="st5" points="446.3,758.8 417.1,759.2 416.9,711.2 446.1,710.8 				"/>
				<polygon class="st5" points="490.4,758.1 461.4,758.5 461.2,710.6 490.3,710.3 				"/>
				<polygon class="st5" points="534.4,757.5 504.9,757.9 505.2,710.1 534.4,709.7 				"/>
			</g>
		</g>
	</g>
	<g>
		
			<linearGradient id="SVGID_2_" gradientUnits="userSpaceOnUse" x1="678.1573" y1="990.4693" x2="534.2911" y2="789.0569" gradientTransform="matrix(1 0 0 -1 0 874.7755)">
			<stop  offset="0" style="stop-color:#E1483D"/>
			<stop  offset="1" style="stop-color:#E9625A"/>
		</linearGradient>
		<path class="st10" d="M386.9,567.7H139.5c-12,0-21.7-9.7-21.7-21.7V384.5c0-12,9.7-21.7,21.7-21.7h247.4c12,0,21.7,9.7,21.7,21.7
			V546C408.6,558,398.9,567.7,386.9,567.7z"/>
		
			<linearGradient id="SVGID_3_" gradientUnits="userSpaceOnUse" x1="685.639" y1="985.1239" x2="541.7729" y2="783.7115" gradientTransform="matrix(1 0 0 -1 0 874.7755)">
			<stop  offset="0" style="stop-color:#F5928F"/>
			<stop  offset="1" style="stop-color:#F37064"/>
		</linearGradient>
		<path class="st11" d="M398.2,567.7H150.8c-12,0-21.7-9.7-21.7-21.7V384.5c0-12,9.7-21.7,21.7-21.7h247.4c12,0,21.7,9.7,21.7,21.7
			V546C419.9,558,410.2,567.7,398.2,567.7z"/>
		<path class="st5" d="M212.1,540.7c-2.2,0-4.1,0-5.6-0.1c-2.6-0.1-4.7-1.9-5-4.5s1.2-4.9,3.7-5.6c13.3-3.7,27.8-10.1,38.4-15.2
			c-50.9-4.1-61-30.3-63-42.2c-5-30.1,21.2-64.2,58.3-76c37.9-12,76.2-7.7,97.7,11c11.4,9.9,23.8,29,18,63.3
			C343.8,535.6,243.7,540.7,212.1,540.7z M207.7,539.4L207.7,539.4L207.7,539.4z M206.7,531.4L206.7,531.4L206.7,531.4z
			 M280.2,506.3l-16.1,9c-0.8,0.5-15,8.3-32.3,15.6c39.3-2.4,105.7-13.5,113.8-61c4.1-24.1-0.9-42.6-14.9-54.8
			c-21.8-18.9-60.3-18.3-88.9-9.2c-32.4,10.3-56.2,40.4-52,65.7c3.8,23,30,35.9,71.9,35L280.2,506.3z"/>
	</g>
	<g>
		
			<linearGradient id="SVGID_4_" gradientUnits="userSpaceOnUse" x1="478.238" y1="829.2299" x2="-30.5894" y2="399.1491" gradientTransform="matrix(1 0 0 -1 0 874.7755)">
			<stop  offset="0" style="stop-color:#5560AB"/>
			<stop  offset="1" style="stop-color:#4C57A6"/>
		</linearGradient>
		<path class="st12" d="M390.4,326.8H143c-12,0-21.7-9.7-21.7-21.7V143.6c0-12,9.7-21.7,21.7-21.7h247.4c12,0,21.7,9.7,21.7,21.7
			v161.5C412.1,317.1,402.4,326.8,390.4,326.8z"/>
		
			<linearGradient id="SVGID_5_" gradientUnits="userSpaceOnUse" x1="185.195" y1="588.416" x2="622.8317" y2="876.1357" gradientTransform="matrix(1 0 0 -1 0 874.7755)">
			<stop  offset="0" style="stop-color:#5560AB"/>
			<stop  offset="1" style="stop-color:#4C57A6"/>
		</linearGradient>
		<path class="st13" d="M401.7,327.8H154.3c-12,0-21.7-9.7-21.7-21.7V144.6c0-12,9.7-21.7,21.7-21.7h247.4c12,0,21.7,9.7,21.7,21.7
			v161.5C423.4,318.1,413.7,327.8,401.7,327.8z"/>
		<g>
			
				<linearGradient id="SVGID_6_" gradientUnits="userSpaceOnUse" x1="184.4" y1="650.2797" x2="362.2" y2="650.2797" gradientTransform="matrix(1 0 0 -1 0 874.7755)">
				<stop  offset="0" style="stop-color:#DBE2F3"/>
				<stop  offset="1" style="stop-color:#EAEFF8"/>
			</linearGradient>
			<path class="st14" d="M341.8,297.8h-137c-11.2,0-20.4-9.1-20.4-20.4V171.6c0-11.2,9.1-20.4,20.4-20.4h137
				c11.2,0,20.4,9.1,20.4,20.4v105.8C362.2,288.6,353,297.8,341.8,297.8z M204.8,158.3c-7.3,0-13.3,6-13.3,13.3v105.8
				c0,7.3,6,13.3,13.3,13.3h137c7.3,0,13.3-6,13.3-13.3V171.6c0-7.3-6-13.3-13.3-13.3H204.8z"/>
			
				<linearGradient id="SVGID_7_" gradientUnits="userSpaceOnUse" x1="190.3" y1="683.6797" x2="357.6" y2="683.6797" gradientTransform="matrix(1 0 0 -1 0 874.7755)">
				<stop  offset="0" style="stop-color:#DBE2F3"/>
				<stop  offset="1" style="stop-color:#EAEFF8"/>
			</linearGradient>
			<polygon class="st15" points="273,224.9 190.3,162.9 194.6,157.3 273.1,216.1 353.5,159.1 357.6,164.8 			"/>
			
				<linearGradient id="SVGID_8_" gradientUnits="userSpaceOnUse" x1="301.1" y1="630.8797" x2="358.7" y2="630.8797" gradientTransform="matrix(1 0 0 -1 0 874.7755)">
				<stop  offset="0" style="stop-color:#DBE2F3"/>
				<stop  offset="1" style="stop-color:#EAEFF8"/>
			</linearGradient>
			<polygon class="st16" points="352.5,291.2 301.1,200.1 307.3,196.6 358.7,287.7 			"/>
			
				<linearGradient id="SVGID_9_" gradientUnits="userSpaceOnUse" x1="188.2" y1="631.8797" x2="244.9" y2="631.8797" gradientTransform="matrix(1 0 0 -1 0 874.7755)">
				<stop  offset="0" style="stop-color:#DBE2F3"/>
				<stop  offset="1" style="stop-color:#EAEFF8"/>
			</linearGradient>
			<polygon class="st17" points="194.4,290.4 188.2,287 238.7,195.4 244.9,198.8 			"/>
		</g>
	</g>
	<g>
		
			<linearGradient id="SVGID_10_" gradientUnits="userSpaceOnUse" x1="563.577" y1="564.3665" x2="18.3982" y2="-164.0525" gradientTransform="matrix(1 0 0 -1 0 874.7755)">
			<stop  offset="0" style="stop-color:#5560AB"/>
			<stop  offset="1" style="stop-color:#4C57A6"/>
		</linearGradient>
		<path class="st18" d="M386.9,814.2H139.5c-12,0-21.7-9.7-21.7-21.7V631c0-12,9.7-21.7,21.7-21.7h247.4c12,0,21.7,9.7,21.7,21.7
			v161.5C408.6,804.5,398.9,814.2,386.9,814.2z"/>
		
			<linearGradient id="SVGID_11_" gradientUnits="userSpaceOnUse" x1="149.6463" y1="63.5628" x2="603.952" y2="425.4936" gradientTransform="matrix(1 0 0 -1 0 874.7755)">
			<stop  offset="0" style="stop-color:#5560AB"/>
			<stop  offset="1" style="stop-color:#4C57A6"/>
		</linearGradient>
		<path class="st19" d="M398.2,814.2H150.8c-12,0-21.7-9.7-21.7-21.7V631c0-12,9.7-21.7,21.7-21.7h247.4c12,0,21.7,9.7,21.7,21.7
			v161.5C419.9,804.5,410.2,814.2,398.2,814.2z"/>
		
			<linearGradient id="SVGID_12_" gradientUnits="userSpaceOnUse" x1="204.024" y1="164.1417" x2="352.3975" y2="164.1417" gradientTransform="matrix(1 0 0 -1 0 874.7755)">
			<stop  offset="0" style="stop-color:#DBE2F3"/>
			<stop  offset="1" style="stop-color:#EAEFF8"/>
		</linearGradient>
		<path class="st20" d="M320,784.8c-11.3,0-24.7-5.3-39.7-15.9l0,0c-10-7-53.5-50.5-60.4-60.4c-12.6-18-17.7-33.5-15.3-46
			c1.6-8.1,6.4-15.1,14-20l6.6-4.3c4.9-3.2,11.5-1.8,14.8,3l18.3,27.4c3.8,5.6,2.4,13.1-3.1,17l-0.1,0.1l-3.1,2
			c-2.9,1.9-4.7,4.9-5,8.3c-0.3,3.4,1,6.7,3.5,9l0.1,0.1l33.4,33.4c2.3,2.5,5.6,3.8,9,3.5s6.4-2.1,8.3-5l2.1-3.3
			c3.9-5.5,11.4-6.9,17-3.1l27.4,18.3c4.9,3.3,6.2,9.9,3,14.8l-4.3,6.6c-4.9,7.6-11.8,12.4-20,14C324.3,784.6,322.2,784.8,320,784.8
			z M284.3,763.1c16.3,11.4,30,16.2,40.7,14.1c6.3-1.2,11.5-4.9,15.4-10.9l4.3-6.6c1.1-1.7,0.6-3.9-1-5l-27.4-18.3
			c-2.4-1.6-5.6-1-7.3,1.3l-2,3.1c-3.1,4.7-8,7.7-13.6,8.2s-10.9-1.6-14.7-5.6l-33.2-33.2c-4.1-3.8-6.1-9.2-5.6-14.7
			c0.5-5.6,3.5-10.5,8.2-13.6l3.1-2c2.3-1.7,2.9-4.9,1.3-7.3L234,645.1c-1.1-1.7-3.4-2.1-5-1l-6.6,4.3c-6,3.9-9.7,9.1-10.9,15.4
			c-2.1,10.6,2.7,24.3,14.1,40.6C232.1,713.8,274.9,756.6,284.3,763.1L284.3,763.1z"/>
	</g>
	<g>
		<g>
			<g>
				
					<linearGradient id="SVGID_13_" gradientUnits="userSpaceOnUse" x1="-429.1601" y1="1089.4171" x2="-513.9237" y2="968.3262" gradientTransform="matrix(1.388 -6.860000e-02 -6.850000e-02 -1.3855 1890.6255 1002.5031)">
					<stop  offset="0" style="stop-color:#201B59"/>
					<stop  offset="1" style="stop-color:#2D2D84"/>
				</linearGradient>
				<path class="st21" d="M616.5,601.3c-0.1,0-0.2,0-0.3,0l-142.6-0.1c-3.5,0-6.4-2.9-6.4-6.5s2.9-6.6,6.4-6.5l142.6,0.1
					c3.5,0,6.4,2.9,6.4,6.5C622.5,598.3,619.8,601.1,616.5,601.3z"/>
			</g>
			<g>
				
					<linearGradient id="SVGID_14_" gradientUnits="userSpaceOnUse" x1="-3771.7175" y1="4701.2666" x2="-3856.4812" y2="4580.1753" gradientTransform="matrix(-0.6475 -1.2297 -1.2274 0.6463 -11263.3369 -9067.3867)">
					<stop  offset="0" style="stop-color:#201B59"/>
					<stop  offset="1" style="stop-color:#2D2D84"/>
				</linearGradient>
				<path class="st22" d="M418.3,458.8c0.1,0.1,0.1,0.2,0.1,0.3l60,132c1.5,3.3,0.1,7.1-3.1,8.6s-7,0.1-8.5-3.2l-60-132
					c-1.5-3.3-0.1-7.1,3.1-8.6C413.1,454.5,416.7,455.8,418.3,458.8z"/>
			</g>
		</g>
		<g>
			<g>
				
					<linearGradient id="SVGID_15_" gradientUnits="userSpaceOnUse" x1="-5578.708" y1="-64.091" x2="-5577.7041" y2="-170.514" gradientTransform="matrix(-1 0 0 -1 -4980.8633 874.7755)">
					<stop  offset="0" style="stop-color:#201B59"/>
					<stop  offset="1" style="stop-color:#2D2D84"/>
				</linearGradient>
				<path class="st23" d="M630.2,813.4c0,0,1.2,6.9,1.7,15.2c0.2,3.5-2.4,6.6-5.9,6.9c-12.2,1.2-39.9,3.4-57.6,0.8
					c-2.5-0.4-3.5-3.4-1.6-5.1c7.3-6.8,24.9-20,53.9-22.9L630.2,813.4z"/>
				
					<linearGradient id="SVGID_16_" gradientUnits="userSpaceOnUse" x1="-5604.3447" y1="54.7649" x2="-5609.8667" y2="97.9363" gradientTransform="matrix(-1 0 0 -1 -4980.8633 874.7755)">
					<stop  offset="0" style="stop-color:#F9BABA"/>
					<stop  offset="1" style="stop-color:#F5928F"/>
				</linearGradient>
				<path class="st24" d="M636.2,797.7l-6.2,15.1c-0.8,2.1-2.9,3.4-5.2,3.1c-1.5-0.2-3.3-0.4-5-1c-3.5-1.1-5.4-4.7-4.4-8.2l4.6-15.5
					L636.2,797.7z"/>
				
					<linearGradient id="SVGID_17_" gradientUnits="userSpaceOnUse" x1="-5722.5591" y1="-65.4475" x2="-5721.5552" y2="-171.8698" gradientTransform="matrix(-1 0 0 -1 -4980.8633 874.7755)">
					<stop  offset="0" style="stop-color:#201B59"/>
					<stop  offset="1" style="stop-color:#2D2D84"/>
				</linearGradient>
				<path class="st25" d="M741.5,825.4c0,0-12.3,10.3-17.1,23.5c-1.3,3.6,1.5,7.5,5.3,7.5H755c3.7,0,6.6-3.3,5.9-7
					C759.3,840.3,754.7,825.4,741.5,825.4z"/>
				
					<linearGradient id="SVGID_18_" gradientUnits="userSpaceOnUse" x1="-5725.1226" y1="39.9573" x2="-5730.5039" y2="82.0269" gradientTransform="matrix(-1 0 0 -1 -4980.8633 874.7755)">
					<stop  offset="0" style="stop-color:#F9BABA"/>
					<stop  offset="1" style="stop-color:#F5928F"/>
				</linearGradient>
				<path class="st26" d="M756.7,812c0,0-2.5,11-4.4,18.3c-0.3,1.3-1.8,2-3,1.6c-3.8-1.4-7-2-9.2-1.7c-1,0.1-2-0.7-2-1.8l-0.2-18.3
					L756.7,812z"/>
				
					<linearGradient id="SVGID_19_" gradientUnits="userSpaceOnUse" x1="-5762.6084" y1="199.8297" x2="-5597.0635" y2="199.8297" gradientTransform="matrix(-1 0 0 -1 -4980.8633 874.7755)">
					<stop  offset="0" style="stop-color:#201B59"/>
					<stop  offset="1" style="stop-color:#2D2D84"/>
				</linearGradient>
				<path class="st27" d="M691.2,564l-75,228.7c0,0,14.4,9.4,21.2,9l89-183.8c0,0,15.6,113.3,8,194.6l25.5,1.9
					c0,0,41.5-207.8,10.1-278.9L691.2,564z"/>
				
					<linearGradient id="SVGID_20_" gradientUnits="userSpaceOnUse" x1="962.7948" y1="605.0699" x2="815.9723" y2="399.2157" gradientTransform="matrix(1 0 0 -1 0 874.7755)">
					<stop  offset="0" style="stop-color:#201B59"/>
					<stop  offset="1" style="stop-color:#2D2D84"/>
				</linearGradient>
				<path class="st28" d="M726,616C726,616,726.1,616,726,616c0.5-0.1,0.8-0.4,0.7-0.8l-2.9-23.1c0-0.4-0.4-0.7-0.8-0.6
					c-0.4,0.1-0.7,0.4-0.6,0.8l2.9,23.1C725.3,615.7,725.6,616,726,616z"/>
			</g>
			
				<linearGradient id="SVGID_21_" gradientUnits="userSpaceOnUse" x1="-1467.5023" y1="6275.9297" x2="-1611.2977" y2="6074.6162" gradientTransform="matrix(-1 0 0 -1 -4980.8633 874.7755)">
				<stop  offset="0" style="stop-color:#F5928F"/>
				<stop  offset="1" style="stop-color:#F37064"/>
			</linearGradient>
			<path class="st29" d="M677.1,362.8c0,0,60.7,5.4,52.1,48.7c0,0,33.6,63.2,49.3,137.6c0.5,2.4-1.1,4.8-3.6,5.2l-101.1,17.3
				c-2.8,0.5-5.5-1.3-6.2-4l-24.2-93.4l-9.4,43.4l-29.9-7.8l25.2-127.6C629.3,382.2,632.9,363.6,677.1,362.8z"/>
			
				<linearGradient id="SVGID_22_" gradientUnits="userSpaceOnUse" x1="633.7896" y1="424.8894" x2="643.7285" y2="424.8894" gradientTransform="matrix(1 0 0 -1 0 874.7755)">
				<stop  offset="0" style="stop-color:#E1483D"/>
				<stop  offset="1" style="stop-color:#E9625A"/>
			</linearGradient>
			<path class="st30" d="M643,470c0.1,0,0.1,0,0.2,0c0.4-0.1,0.7-0.5,0.6-0.9l-8.4-38.7c-0.1-0.4-0.5-0.7-0.9-0.6s-0.7,0.5-0.6,0.9
				l8.4,38.7C642.3,469.7,642.6,470,643,470z"/>
			
				<linearGradient id="SVGID_23_" gradientUnits="userSpaceOnUse" x1="-5684.4634" y1="316.2297" x2="-5609.0459" y2="316.2297" gradientTransform="matrix(-1 0 0 -1 -4980.8633 874.7755)">
				<stop  offset="0" style="stop-color:#F9BABA"/>
				<stop  offset="1" style="stop-color:#F5928F"/>
			</linearGradient>
			<path class="st31" d="M649.1,585.2c3.2-1.8,6.9-2.2,10.4-1.4l7,1.8c1.5,0.4,3-0.7,3.2-2.2l7.3-64.8c9.1,4.3,22.2,3.8,26.6,3.5
				l-16.8,76.4h-58.7L649.1,585.2z"/>
			
				<linearGradient id="SVGID_24_" gradientUnits="userSpaceOnUse" x1="-5614.8633" y1="410.7795" x2="-5474.0635" y2="410.7795" gradientTransform="matrix(-1 0 0 -1 -4980.8633 874.7755)">
				<stop  offset="0" style="stop-color:#F9BABA"/>
				<stop  offset="1" style="stop-color:#F5928F"/>
			</linearGradient>
			<path class="st32" d="M493.2,444.6l1.8-5.9c1-3.4,3.5-6.1,6.8-7.5l32.1-12.9c0,0,0.5-4.1-6.8-6.9s-5.6-10.9-5.6-10.9
				s9.9,4.5,24.4,11.7c8.3,4.1,13,11.3,15.4,16.8l72.7,88.6l-8.5,5.9c-11.2,7.7-26.6,3.9-33-8.1l-39.4-75.5
				C533.4,445.8,513.4,446.9,493.2,444.6z"/>
			<g>
				
					<linearGradient id="SVGID_25_" gradientUnits="userSpaceOnUse" x1="-5665.6729" y1="489.8321" x2="-5616.6577" y2="540.1202" gradientTransform="matrix(-1 0 0 -1 -4980.8633 874.7755)">
					<stop  offset="0" style="stop-color:#F9BABA"/>
					<stop  offset="1" style="stop-color:#F5928F"/>
				</linearGradient>
				<path class="st33" d="M657.5,321.4l18.7,52.3c0,0-16.5,12.9-28.6,8.6l-9.4-30C638.1,352.3,645.3,315.7,657.5,321.4z"/>
				<g>
					
						<linearGradient id="SVGID_26_" gradientUnits="userSpaceOnUse" x1="-5594.5684" y1="571.7812" x2="-5655.6777" y2="490.9384" gradientTransform="matrix(-1 0 0 -1 -4980.8633 874.7755)">
						<stop  offset="0" style="stop-color:#F9BABA"/>
						<stop  offset="1" style="stop-color:#F5928F"/>
					</linearGradient>
					<path class="st34" d="M601.7,302.7c0,0.8,18,50.9,18,50.9l28.4-10.9l-10-50.1C638.1,292.7,601.7,289.2,601.7,302.7z"/>
					
						<linearGradient id="SVGID_27_" gradientUnits="userSpaceOnUse" x1="-5641.2241" y1="552.2282" x2="-5568.2134" y2="552.2282" gradientTransform="matrix(-1 0 0 -1 -4980.8633 874.7755)">
						<stop  offset="0" style="stop-color:#201B59"/>
						<stop  offset="1" style="stop-color:#2D2D84"/>
					</linearGradient>
					<path class="st35" d="M633.1,304.9l7.3,25.9c0.1,0.3,0.1,0.7,0.1,1c0,2.1-0.5,9.4-7.9,8.4c-6.7-0.9-12.9-1.6-16.8,0.2
						c-1.8,0.8-2.6,2.8-1.9,4.7c1.6,4.6,5.5,14.8,10.2,23.1c1,1.7,3.1,2.4,4.8,1.5c5.3-2.4,16.4-7.9,24.4-14.3
						c1.1-0.9,1.6-2.3,1.3-3.6c-1.2-6.6-5-26.8-5.1-32.6c-0.2-5.4,5.9-9.6,8.6-11.1c0.9-0.5,1.5-1.4,1.7-2.3
						c0.8-3.5,1.6-11.4-8.5-13.1c-2.1-0.4-3.5-2.4-3.1-4.5c0.9-4.2,0.6-10.3-7.4-12.6c-8.1-2.3-13.1,2.6-15.7,6.3
						c-1,1.5-3,2-4.7,1.2c-1-0.4-2.1-0.4-3.3,0.6c-1.7,1.4-4.2,1-5.4-0.8c-2.4-3.5-6.6-6.9-13.9-4.6c-12.8,4.2-12.2,19-7.5,27
						s18.4,2.8,24.8-2.6c4.9-4.1,12.4-1.6,15.7-0.2C632,302.9,632.8,303.8,633.1,304.9z"/>
					
						<linearGradient id="SVGID_28_" gradientUnits="userSpaceOnUse" x1="-5684.0239" y1="507.7186" x2="-5635.0088" y2="558.0063" gradientTransform="matrix(-1 0 0 -1 -4980.8633 874.7755)">
						<stop  offset="0" style="stop-color:#F9BABA"/>
						<stop  offset="1" style="stop-color:#F5928F"/>
					</linearGradient>
					<path class="st36" d="M652.1,328.7c0,0-7.6-14.4-2.6-18.9s13.5-3.8,13.3,7.5C662.6,331.2,652.1,328.7,652.1,328.7z"/>
				</g>
			</g>
			
				<linearGradient id="SVGID_29_" gradientUnits="userSpaceOnUse" x1="672.5742" y1="403.9894" x2="727.7715" y2="403.9894" gradientTransform="matrix(1 0 0 -1 0 874.7755)">
				<stop  offset="0" style="stop-color:#E1483D"/>
				<stop  offset="1" style="stop-color:#E9625A"/>
			</linearGradient>
			<path class="st37" d="M697.7,523c4.1,0,7.1-0.3,7.4-0.3l0.5-0.1l22.2-103.1c0.1-0.4-0.2-0.8-0.6-0.9c-0.4-0.1-0.8,0.2-0.9,0.6
				l-21.9,102c-3.3,0.3-20.9,1.5-30.1-5.1l19.2-89.6l-4-7.5c-0.2-0.4-0.7-0.5-1-0.3c-0.4,0.2-0.5,0.7-0.3,1l3.7,7.1l-19.2,90
				l0.4,0.3C679.7,522.1,690.5,523,697.7,523z"/>
		</g>
		<g>
			<path class="st38" d="M576.7,613.4c0.6,2,55.8,171.6,69.8,214.7c1.6,5-2.9,9.8-9.1,9.8c-4.3,0-8.1-2.4-9.1-5.9L567,628.4
				L576.7,613.4z"/>
			<path class="st38" d="M546.4,613.4c-0.6,2-55.8,171.6-69.8,214.7c-1.6,5,2.9,9.8,9.1,9.8c4.3,0,8.1-2.4,9.1-5.9l61.3-203.6
				L546.4,613.4z"/>
			<path class="st38" d="M544.1,606.6h34.4v27.6c0,4-3.2,7.2-7.1,7.2h-4.7v62c0,3-2.4,5.4-5.4,5.4s-5.4-2.4-5.4-5.4v-62h-2.4
				c-5.2,0-9.4-4.3-9.4-9.5L544.1,606.6L544.1,606.6z"/>
			<path class="st38" d="M683.6,600H442.9c-3.4,0-6.3,1.8-7.1,4.5l-3.4,10.5c-1.2,3.8,2.3,7.5,7.2,7.4l247-1.1
				c4.8,0,8.3-3.7,7.1-7.4l-2.9-9.4C689.9,601.8,687,600,683.6,600z"/>
		</g>
	</g>
</g>
</svg>
